<?xml version="1.0" standalone="no"?>
<!DOCTYPE svg PUBLIC "-//W3C//DTD SVG 20010904//EN"
 "http://www.w3.org/TR/2001/REC-SVG-20010904/DTD/svg10.dtd">
<svg version="1.0" xmlns="http://www.w3.org/2000/svg"
 width="115.000000pt" height="110.000000pt" viewBox="0 0 115.000000 110.000000"
 preserveAspectRatio="xMidYMid meet">
<metadata>
Created by potrace 1.10, written by Peter Selinger 2001-2011
</metadata>
<g transform="translate(0.000000,110.000000) scale(0.100000,-0.100000)"
fill="#ffffff" stroke="none">
<path d="M184 1016 c-39 -17 -72 -59 -80 -102 -4 -20 -13 -36 -25 -39 -35 -11
-69 -64 -69 -106 0 -87 55 -135 144 -126 28 3 60 8 71 12 14 4 42 -10 98 -49
l78 -54 -75 -51 c-81 -55 -89 -57 -147 -39 -82 24 -169 -34 -169 -113 0 -50
22 -94 57 -113 19 -9 32 -29 43 -62 17 -56 64 -94 115 -94 67 0 135 75 135
150 0 19 4 40 8 45 12 17 204 150 213 148 17 -5 185 -126 202 -145 10 -12 17
-36 17 -62 0 -77 58 -136 134 -136 45 0 102 47 112 93 4 19 24 48 50 73 31 29
44 49 45 70 3 81 -13 113 -68 139 -35 17 -46 17 -138 -1 -25 -5 -44 3 -102 43
-40 26 -72 51 -73 54 0 3 34 29 76 58 75 53 77 53 114 41 53 -18 125 -8 156
21 24 22 46 80 39 102 -2 7 -6 24 -9 39 -4 18 -21 38 -46 54 -26 17 -40 34
-40 48 0 11 -9 36 -20 54 -67 110 -230 49 -230 -87 0 -22 -7 -46 -15 -54 -35
-36 -207 -148 -218 -143 -7 3 -55 36 -107 74 -95 68 -95 68 -101 118 -9 73
-33 112 -82 135 -50 22 -53 22 -93 5z m97 -65 c23 -24 29 -38 29 -74 0 -30 7
-53 20 -70 12 -15 141 -111 287 -214 288 -202 272 -195 381 -178 106 17 144
-88 53 -148 -30 -20 -40 -34 -44 -65 -12 -74 -83 -100 -134 -49 -20 19 -27 39
-31 79 -2 30 -9 61 -16 70 -7 9 -135 103 -286 208 l-274 192 -46 -7 c-98 -14
-121 -11 -146 19 -30 34 -31 71 -2 96 13 11 35 31 51 45 16 14 27 34 27 50 0
33 42 75 75 75 16 0 38 -12 56 -29z m698 7 c12 -12 24 -36 27 -54 4 -23 20
-45 49 -68 49 -41 57 -62 40 -103 -18 -41 -64 -59 -114 -44 -21 6 -50 11 -65
11 -25 0 -124 -58 -172 -102 -22 -19 -22 -19 -72 14 -28 18 -51 35 -51 38 0 3
43 34 95 70 110 74 124 90 124 143 0 95 85 153 139 95z m-492 -470 l46 -31
-29 -24 c-16 -13 -58 -43 -94 -67 -84 -56 -92 -66 -98 -129 -3 -29 -11 -62
-19 -74 -18 -27 -61 -43 -89 -32 -26 9 -54 47 -54 72 0 10 -22 40 -50 67 -58
55 -64 87 -25 125 27 28 71 32 124 14 44 -15 67 -7 152 55 41 30 78 55 82 55
5 1 29 -13 54 -31z"/>
</g>
</svg>
